<svg xmlns="http://www.w3.org/2000/svg" width="20" height="20" viewBox="0 0 20 20"><g transform="translate(-10 -10)"><path d="M37.5,10a4.03,4.03,0,0,0-4.1,4.84l.672,4.033a3.476,3.476,0,0,0,6.858,0L41.6,14.84A4.029,4.029,0,0,0,37.5,10Zm2.457,4.567L39.285,18.6a1.81,1.81,0,0,1-3.57,0l-.672-4.032a2.508,2.508,0,1,1,4.914,0Z" transform="translate(-17.5)"/><path d="M28.419,59.641,23.5,58a4.965,4.965,0,0,1-7,0l-4.917,1.639A2.475,2.475,0,0,0,10,61.835V66H30V61.835A2.475,2.475,0,0,0,28.419,59.641Zm-.086,4.694H11.667v-2.5a.858.858,0,0,1,.443-.614l4.05-1.349a6.559,6.559,0,0,0,7.681,0l4.051,1.349a.859.859,0,0,1,.442.614Z" transform="translate(0 -36.001)"/></g></svg>